# xmcd CD database file
# Copyright (C) 1993-1998 Ti Kan
# 
# Track frame offsets:
#     183
#     13898
#     23273
#     41475
#     53560
#     81040
#     96318
#     123448
#     135198
#     146315
# 
# Disc length: 2119 seconds
# 
# Revision: 1
# Processed by: cddbd v1.4b41PL1 Copyright (c) Steve Scherf et al.
# Submitted via: DiscPlay 4.0.4
# 
DISCID=6f08450a
DTITLE=Jimmy Dean - Country Spotlight
DYEAR=1900
DGENRE=
TTITLE0=Big Bad John
TTITLE1=The First thing ev'ry Morning
TTITLE2=Dear Ivan
TTITLE3=Stand beside me
TTITLE4=I. O. U.
TTITLE5=P.T. 109
TTITLE6=To A Sleeping Beauty
TTITLE7=the Cajun Queen
TTITLE8=Little Black Book
TTITLE9=Bumming Around
EXTD=
EXTT0=
EXTT1=
EXTT2=
EXTT3=
EXTT4=
EXTT5=
EXTT6=
EXTT7=
EXTT8=
EXTT9=
PLAYORDER=
